<svg width="461" height="200" viewBox="0 0 461 200" fill="none" xmlns="http://www.w3.org/2000/svg">
<path fill-rule="evenodd" clip-rule="evenodd" d="M357.153 18.3716H429.51L460.526 65.4548L416.334 108.95H338.222L385.906 62.0185L357.153 18.3716ZM402.183 63.7366L369.077 96.3206H411.143L444.249 63.7366L422.685 31.0011H380.618L402.183 63.7366Z" fill="#1A1A1A"/>
<path fill-rule="evenodd" clip-rule="evenodd" d="M31.0362 184.727L0 137.831L44.178 94.1483H122.205L74.6254 141.195L103.435 184.727H31.0362ZM58.3459 139.513L91.4522 106.778H49.3859L16.2795 139.513L37.8442 172.097H79.9106L58.3459 139.513Z" fill="#1A1A1A"/>
<path d="M365.58 99.3012C364.466 105.565 361.834 110.819 357.683 115.063C353.633 119.205 348.774 122.034 343.104 123.55C348.267 124.762 352.267 127.237 355.101 130.976C358.037 134.714 359.505 139.16 359.505 144.313C359.505 145.929 359.354 147.596 359.05 149.314C357.531 158.407 353.178 165.53 345.989 170.683C338.801 175.836 329.487 178.412 318.046 178.412H265.046L284.029 71.5669H335.359C345.078 71.5669 352.621 73.5371 357.987 77.4775C363.353 81.3168 366.036 86.8233 366.036 93.9968C366.036 95.7144 365.884 97.4825 365.58 99.3012ZM334.144 104.757C334.245 104.252 334.296 103.494 334.296 102.484C334.296 97.6341 331.107 95.2092 324.729 95.2092H309.694L306.353 114.153H321.388C328.778 114.153 333.03 111.021 334.144 104.757ZM329.436 145.07C329.538 144.565 329.588 143.858 329.588 142.949C329.588 140.423 328.728 138.503 327.006 137.19C325.387 135.775 322.957 135.068 319.717 135.068H302.556L299.215 154.618H316.528C323.919 154.618 328.221 151.436 329.436 145.07Z" fill="#1A1A1A"/>
<path d="M237.128 16.8393L218.145 123.684H188.531L199.01 64.5786L168.182 123.684H143.276L133.557 64.2755L123.078 123.684H93.1607L112.144 16.8393H148.135L162.866 86.0992L201.288 16.8393H237.128Z" fill="#1A1A1A"/>
<path fill-rule="evenodd" clip-rule="evenodd" d="M321.412 0L239.892 200H180.205L261.899 0H321.412ZM302.602 12.6295H270.406L199.03 187.371H231.377L302.602 12.6295Z" fill="#1A1A1A"/>
</svg>
